<svg xmlns="http://www.w3.org/2000/svg" viewBox="0 0 1440 320"><path fill="#00cba9" fill-opacity="1" d="M0,96L26.7,122.7C53.3,149,107,203,160,224C213.3,245,267,235,320,240C373.3,245,427,267,480,277.3C533.3,288,587,288,640,240C693.3,192,747,96,800,96C853.3,96,907,192,960,224C1013.3,256,1067,224,1120,186.7C1173.3,149,1227,107,1280,106.7C1333.3,107,1387,149,1413,170.7L1440,192L1440,320L1413.3,320C1386.7,320,1333,320,1280,320C1226.7,320,1173,320,1120,320C1066.7,320,1013,320,960,320C906.7,320,853,320,800,320C746.7,320,693,320,640,320C586.7,320,533,320,480,320C426.7,320,373,320,320,320C266.7,320,213,320,160,320C106.7,320,53,320,27,320L0,320Z"></path></svg>