<?xml version="1.0" standalone="no"?><svg xmlns="http://www.w3.org/2000/svg" viewBox="0 0 1440 320"><path fill="#f3f4f5" fill-opacity="1" d="M0,96L0,32L130.9,32L130.9,160L261.8,160L261.8,320L392.7,320L392.7,32L523.6,32L523.6,0L654.5,0L654.5,192L785.5,192L785.5,256L916.4,256L916.4,160L1047.3,160L1047.3,192L1178.2,192L1178.2,32L1309.1,32L1309.1,224L1440,224L1440,320L1309.1,320L1309.1,320L1178.2,320L1178.2,320L1047.3,320L1047.3,320L916.4,320L916.4,320L785.5,320L785.5,320L654.5,320L654.5,320L523.6,320L523.6,320L392.7,320L392.7,320L261.8,320L261.8,320L130.9,320L130.9,320L0,320L0,320Z"></path></svg>