<?xml version="1.0" standalone="no"?><svg xmlns="http://www.w3.org/2000/svg" viewBox="0 0 1440 320"><path fill="#f3f4f5" fill-opacity="1" d="M0,256L0,0L130.9,0L130.9,192L261.8,192L261.8,32L392.7,32L392.7,256L523.6,256L523.6,0L654.5,0L654.5,128L785.5,128L785.5,0L916.4,0L916.4,256L1047.3,256L1047.3,224L1178.2,224L1178.2,96L1309.1,96L1309.1,256L1440,256L1440,0L1309.1,0L1309.1,0L1178.2,0L1178.2,0L1047.3,0L1047.3,0L916.4,0L916.4,0L785.5,0L785.5,0L654.5,0L654.5,0L523.6,0L523.6,0L392.7,0L392.7,0L261.8,0L261.8,0L130.9,0L130.9,0L0,0L0,0Z"></path></svg>